<svg xmlns="http://www.w3.org/2000/svg" xmlns:xlink="http://www.w3.org/1999/xlink" version="1.1" id="レイヤー_1" x="0px" y="0px" width="16px" height="16px" viewBox="0 0 16 16" enable-background="new 0 0 16 16" xml:space="preserve">
<defs>
<g id="star">
	<path d="M15.305,5.626c-0.613-0.094-1.639-0.251-2.277-0.348l-1.251-0.193c-0.639-0.097-1.385-0.655-1.659-1.239   L9.519,2.572C9.245,1.987,8.795,1.031,8.522,0.447L8.519,0.438c-0.273-0.584-0.723-0.584-0.997,0L7.518,0.447   c-0.274,0.584-0.724,1.54-0.996,2.125L5.923,3.846C5.648,4.43,4.902,4.989,4.265,5.085L3.013,5.279   C2.374,5.375,1.349,5.533,0.733,5.626C0.118,5.721-0.021,6.17,0.424,6.627c0.444,0.455,1.178,1.206,1.629,1.668l0.943,0.968   c0.451,0.461,0.737,1.361,0.632,1.998l-0.231,1.422c-0.104,0.639-0.274,1.682-0.378,2.318l-0.004,0.025   c-0.104,0.637,0.261,0.91,0.811,0.605c0.552-0.305,1.464-0.809,2.027-1.121l1.142-0.629c0.564-0.312,1.488-0.312,2.053,0   l1.141,0.629c0.564,0.312,1.476,0.816,2.025,1.121c0.552,0.305,0.916,0.031,0.812-0.605l-0.003-0.025   c-0.104-0.637-0.274-1.68-0.379-2.318l-0.231-1.422c-0.104-0.637,0.18-1.539,0.629-2l0.946-0.966   c0.45-0.462,1.183-1.213,1.629-1.668C16.061,6.17,15.921,5.721,15.305,5.626"/>
</g>
</defs>
</svg>